<svg viewBox="0 0 311 341" fill="none" xmlns="http://www.w3.org/2000/svg">
    <path fill-rule="evenodd" clip-rule="evenodd"
        d="M67.497.826c-4.517.552-10.214 1.89-14.697 3.45-6.884 2.395-16.785 7.615-20.724 10.924-.262.22-1.476 1.16-2.697 2.088C14.619 28.503 2.794 50.109.98 69.174c-.59 6.197-.3 172.988.304 175.226.238.88.809 3.31 1.27 5.4.741 3.359 1.58 5.985 3.78 11.829.772 2.05 4.389 9.039 5.8 11.208l1.955 3c6.433 9.864 18.214 20.268 28.598 25.253a662.98 662.98 0 0 0 5.113 2.429c2.444 1.144 9.287 3.481 10.192 3.481.319 0 1.383.273 2.364.606 4.901 1.664 9.041 1.909 36.373 2.156l26.329.238 1.471 1.616 5.071 5.58c1.98 2.18 4.429 4.873 5.441 5.984 1.013 1.111 3.866 4.27 6.341 7.02 8.223 9.137 9.432 10.002 13.968 9.998 4.692-.005 5.579-.617 13.269-9.15a772.25 772.25 0 0 1 4.381-4.833c1.201-1.299 3.502-3.843 7.8-8.628 1.76-1.959 4.154-4.501 5.32-5.65l2.12-2.09 25.88-.156c31.146-.187 31.166-.189 43.48-4.191 4.137-1.344 10.393-4.158 14-6.296.88-.522 2.14-1.257 2.8-1.634 2.523-1.441 10.121-7.627 13-10.585 4.067-4.177 8.413-9.4 9.641-11.585.432-.77 1.31-2.21 1.951-3.2 4.656-7.195 8.512-17.659 10.391-28.2l.856-4.8-.139-85.8c-.105-64.543-.257-86.246-.614-87.6-.262-.99-.737-3.06-1.056-4.6-1.116-5.373-3.195-11.884-4.654-14.572-.187-.345-1.01-2.068-1.828-3.828-.818-1.76-1.787-3.65-2.153-4.2l-2.798-4.2C288.656 21.881 277.233 12.54 262 5.783c-3.147-1.396-11.534-3.826-16.2-4.694C240.977.193 74.691-.053 67.497.826Zm140.199 77.002c9.994.976 16.113 11.134 12.949 21.496-1.376 4.504-2.56 6.537-6.645 11.409-3.526 4.205-3.531 4.21-4.408 5.177-.445.489-1.795 2.06-3 3.49-1.206 1.43-2.395 2.78-2.644 3-.248.22-2.479 2.83-4.957 5.8-2.478 2.97-4.635 5.49-4.793 5.6-.158.11-1.951 2.18-3.986 4.6a539.456 539.456 0 0 1-5.805 6.8c-2.432 2.771-6.972 8.041-11.354 13.18-1.679 1.969-3.323 3.861-3.653 4.204-.33.344-2.566 2.963-4.97 5.82-2.403 2.858-4.567 5.376-4.81 5.596-.242.22-2.403 2.74-4.802 5.6-2.399 2.86-4.655 5.47-5.012 5.8-.357.33-1.623 1.77-2.812 3.2a221.32 221.32 0 0 1-3.778 4.42 193.7 193.7 0 0 0-2.61 3c-.547.649-1.927 2.274-3.067 3.611-1.288 1.511-1.957 2.617-1.768 2.922.236.382 8.365.509 36.466.569l36.163.078 2.799 1c14.009 5.005 13.479 23.806-.799 28.332l-2.8.887-52.8-.111-52.8-.111-2.157-.918c-8.997-3.833-12.683-12.564-9.339-22.123 1.238-3.539 3.34-7.133 5.413-9.256.395-.404 2.719-3.112 5.164-6.017 2.446-2.906 4.657-5.463 4.913-5.683.257-.22 2.429-2.74 4.826-5.6 2.398-2.86 4.556-5.38 4.795-5.6.238-.22 1.408-1.57 2.598-3s2.596-3.05 3.124-3.6c.529-.55 2.679-3.07 4.779-5.6s4.118-4.87 4.484-5.2c.366-.33 2.626-2.94 5.023-5.8 2.398-2.86 4.475-5.29 4.616-5.4.142-.11 1.946-2.192 4.009-4.626 2.064-2.434 5.912-6.917 8.552-9.961 2.64-3.045 6.489-7.534 8.554-9.975 2.065-2.441 3.867-4.528 4.006-4.638.139-.11 1.763-2 3.609-4.2s3.773-4.362 4.282-4.805c.908-.792 2.027-3.251 1.649-3.628-.106-.106-15.675-.184-34.598-.174-39.616.022-38.775.099-43.534-3.999-9.263-7.976-4.133-24.06 8.165-25.601 3.205-.401 98.627-.369 102.763.035Z"
        fill="#005BE0" />
</svg>